<svg width="39" height="39" viewBox="0 0 39 39" fill="none" xmlns="http://www.w3.org/2000/svg">
<g filter="url(#filter0_d_1221_4558)">
<rect x="4.125" y="4.57031" width="30" height="30" rx="6" fill="white"/>
<path fill-rule="evenodd" clip-rule="evenodd" d="M27.4821 23.4746L27.2028 22.8081L26.7762 21.8624L26.7583 21.8445C25.4625 19.0204 24.0981 16.2282 22.6663 13.4705L22.6091 13.3595L22.1683 12.4708C21.9858 12.1071 21.7621 11.7656 21.5018 11.4529C21.2189 11.0964 20.8585 10.8092 20.4479 10.6129C20.0374 10.4167 19.5875 10.3167 19.1325 10.3204C18.6801 10.322 18.2335 10.4221 17.8238 10.6139C17.4141 10.8057 17.0512 11.0845 16.7603 11.4309C16.5062 11.7482 16.283 12.0891 16.0937 12.4488L15.592 13.4306C14.1587 16.2111 12.7753 19.0241 11.4962 21.8046L11.4783 21.8404C11.3672 22.145 11.2203 22.4564 11.0697 22.7901C10.9765 22.9931 10.8834 23.2152 10.7903 23.4567C10.554 24.095 10.4777 24.7815 10.5682 25.4561C10.668 26.1336 10.9425 26.7734 11.3647 27.3125C11.787 27.8516 12.3424 28.2714 12.9763 28.5305C13.4515 28.7302 13.9623 28.8314 14.4777 28.8278C14.6383 28.825 14.7986 28.813 14.9578 28.7919C15.6114 28.7086 16.2415 28.4941 16.8103 28.1615C17.6744 27.6462 18.45 26.9953 19.1073 26.2338C19.7687 26.9913 20.5436 27.6416 21.4043 28.1615C21.9731 28.4942 22.6032 28.7086 23.2568 28.7919C23.4159 28.813 23.5764 28.8249 23.7369 28.8278C24.2525 28.833 24.7635 28.7318 25.2383 28.5305C25.8722 28.2714 26.4276 27.8516 26.8499 27.3125C27.2721 26.7734 27.5466 26.1336 27.6464 25.4561C27.7829 24.7932 27.7245 24.105 27.4781 23.4746H27.4821ZM19.1322 24.4385C18.1325 23.1771 17.4838 21.9949 17.2617 20.9914C17.1709 20.6221 17.1518 20.2395 17.2045 19.8627C17.2412 19.5836 17.3433 19.3173 17.5017 19.0819C17.6872 18.824 17.9324 18.6149 18.2164 18.4727C18.5003 18.3304 18.8146 18.2591 19.1322 18.2649C19.7788 18.2401 20.3936 18.5466 20.7626 19.0784C20.9217 19.3106 21.0235 19.5772 21.0599 19.8563C21.113 20.2328 21.0936 20.6159 21.0026 20.985C20.7805 21.9668 20.1351 23.1351 19.1322 24.4321V24.4385ZM26.5244 25.306C26.3798 26.2711 25.7435 27.0892 24.8367 27.4561C24.3937 27.6435 23.91 27.7138 23.4321 27.6603C22.9346 27.5989 22.4552 27.4354 22.0237 27.1803C21.2286 26.7003 20.516 26.0954 19.9133 25.3888C21.1351 23.8873 21.8797 22.5221 22.1565 21.293C22.277 20.7766 22.3085 20.2434 22.2496 19.7164C22.1808 19.2632 22.009 18.8315 21.7479 18.4549C21.1516 17.6041 20.1709 17.1056 19.1322 17.1255C18.0992 17.1122 17.1246 17.6027 16.52 18.4405C16.2588 18.8173 16.087 19.2485 16.0182 19.7019C15.9399 20.2282 15.9716 20.7651 16.1113 21.2786C16.3907 22.5004 17.1504 23.8908 18.3546 25.3922C17.756 26.103 17.0426 26.7085 16.2441 27.1837C15.8127 27.4444 15.332 27.6128 14.8323 27.6782C14.3547 27.7311 13.8714 27.6672 13.4239 27.492C12.5196 27.1279 11.8776 26.3101 11.7359 25.3448C11.6773 24.8605 11.735 24.3692 11.9043 23.9116C11.9615 23.7254 12.0512 23.553 12.1443 23.3205C12.2733 23.0232 12.4236 22.7074 12.5708 22.3951L12.5888 22.3592C13.8681 19.6004 15.2368 16.7837 16.6663 14.0388L16.7201 13.9063L17.1643 13.0532C17.3085 12.7591 17.4877 12.4836 17.6981 12.2325C17.8808 12.018 18.1079 11.8457 18.3637 11.7276C18.6195 11.6094 18.898 11.5482 19.1797 11.5482C19.4615 11.5482 19.7399 11.6094 19.9958 11.7276C20.2516 11.8457 20.4787 12.018 20.6614 12.2325C20.8617 12.4825 21.0313 12.7556 21.1666 13.046L21.6108 13.8991L21.6646 14.0101C23.0729 16.7727 24.4489 19.5857 25.7248 22.3485V22.3665C25.8717 22.6638 26.0041 22.9969 26.1513 23.2919C26.2444 23.514 26.3375 23.7005 26.3913 23.883C26.5452 24.3442 26.5893 24.8349 26.5203 25.3162L26.5244 25.306Z" fill="#FF5A5F"/>
</g>
<defs>
<filter id="filter0_d_1221_4558" x="0.125" y="0.570312" width="38" height="38" filterUnits="userSpaceOnUse" color-interpolation-filters="sRGB">
<feFlood flood-opacity="0" result="BackgroundImageFix"/>
<feColorMatrix in="SourceAlpha" type="matrix" values="0 0 0 0 0 0 0 0 0 0 0 0 0 0 0 0 0 0 127 0" result="hardAlpha"/>
<feMorphology radius="4" operator="dilate" in="SourceAlpha" result="effect1_dropShadow_1221_4558"/>
<feOffset/>
<feComposite in2="hardAlpha" operator="out"/>
<feColorMatrix type="matrix" values="0 0 0 0 0 0 0 0 0 0 0 0 0 0 0 0 0 0 0.3 0"/>
<feBlend mode="normal" in2="BackgroundImageFix" result="effect1_dropShadow_1221_4558"/>
<feBlend mode="normal" in="SourceGraphic" in2="effect1_dropShadow_1221_4558" result="shape"/>
</filter>
</defs>
</svg>
