<svg width="77" height="77" viewBox="0 0 77 77" fill="none" xmlns="http://www.w3.org/2000/svg">
<g filter="url(#filter0_f_1221_4560)">
<path d="M20.7969 26.0547C20.7969 22.9481 23.3153 20.4297 26.4219 20.4297H51.1719C54.2785 20.4297 56.7969 22.9481 56.7969 26.0547V50.8047C56.7969 53.9113 54.2785 56.4297 51.1719 56.4297H26.4219C23.3153 56.4297 20.7969 53.9113 20.7969 50.8047V26.0547Z" fill="white" fill-opacity="0.6"/>
</g>
<g filter="url(#filter1_i_1221_4560)">
<rect width="43.88" height="43.875" rx="9" transform="matrix(-1 0 0 1 60.7344 16.4922)" fill="#C5C5C5"/>
<rect x="-0.75" y="0.75" width="42.38" height="42.375" rx="8.25" transform="matrix(-1 0 0 1 59.2344 16.4922)" stroke="white" stroke-opacity="0.5" stroke-width="1.5"/>
<path d="M36.2969 31.9299L46.2969 27.9297V35.925C42.3916 36.7061 40.2021 37.144 36.2969 37.925V31.9299Z" fill="#292929"/>
<path d="M41.2969 44.9295L31.2969 48.9297V40.9344L41.2969 38.9344V44.9295Z" fill="#292929"/>
</g>
<defs>
<filter id="filter0_f_1221_4560" x="0.796875" y="0.429688" width="76" height="76" filterUnits="userSpaceOnUse" color-interpolation-filters="sRGB">
<feFlood flood-opacity="0" result="BackgroundImageFix"/>
<feBlend mode="normal" in="SourceGraphic" in2="BackgroundImageFix" result="shape"/>
<feGaussianBlur stdDeviation="10" result="effect1_foregroundBlur_1221_4560"/>
</filter>
<filter id="filter1_i_1221_4560" x="16.8516" y="16.4922" width="43.8828" height="54.375" filterUnits="userSpaceOnUse" color-interpolation-filters="sRGB">
<feFlood flood-opacity="0" result="BackgroundImageFix"/>
<feBlend mode="normal" in="SourceGraphic" in2="BackgroundImageFix" result="shape"/>
<feColorMatrix in="SourceAlpha" type="matrix" values="0 0 0 0 0 0 0 0 0 0 0 0 0 0 0 0 0 0 127 0" result="hardAlpha"/>
<feOffset dy="10.5"/>
<feGaussianBlur stdDeviation="9.9"/>
<feComposite in2="hardAlpha" operator="arithmetic" k2="-1" k3="1"/>
<feColorMatrix type="matrix" values="0 0 0 0 1 0 0 0 0 1 0 0 0 0 1 0 0 0 1 0"/>
<feBlend mode="overlay" in2="shape" result="effect1_innerShadow_1221_4560"/>
</filter>
</defs>
</svg>
