<svg width="39" height="39" viewBox="0 0 39 39" fill="none" xmlns="http://www.w3.org/2000/svg">
<g filter="url(#filter0_d_1221_4549)">
<rect x="4.875" y="4.57031" width="30" height="30" rx="6" fill="#00CCBC"/>
<path d="M18.1573 19.4665C18.1637 19.4652 18.1693 19.4613 18.1729 19.4558C18.1765 19.4503 18.1778 19.4436 18.1765 19.4372L16.7823 12.9631C16.7806 12.9556 16.7805 12.9479 16.7819 12.9404C16.7832 12.9329 16.7861 12.9257 16.7902 12.9193C16.7943 12.9129 16.7997 12.9074 16.806 12.9031C16.8123 12.8988 16.8193 12.8958 16.8268 12.8943L21.0932 12.0057C21.1685 11.9899 21.2143 12.0196 21.2305 12.0947L22.6039 18.446C22.6043 18.4479 22.6052 18.4495 22.6067 18.4507C22.6081 18.4519 22.6099 18.4526 22.6118 18.4527C22.6137 18.4528 22.6156 18.4522 22.6172 18.4511C22.6188 18.45 22.62 18.4485 22.6206 18.4467C22.6244 18.4351 22.6272 18.4215 22.6288 18.4059C22.898 15.8914 23.1653 13.3766 23.4309 10.8615C23.4351 10.8225 23.4424 10.797 23.4527 10.7847C23.4697 10.7645 23.491 10.7557 23.5165 10.7582L27.8952 11.2175C27.9031 11.2183 27.9108 11.2207 27.9178 11.2245C27.9248 11.2283 27.931 11.2334 27.936 11.2396C27.941 11.2458 27.9448 11.2529 27.947 11.2606C27.9493 11.2682 27.95 11.2762 27.9492 11.2841C27.5584 14.9649 27.1676 18.6496 26.7769 22.3384C26.7514 22.5799 26.6889 22.8114 26.5894 23.0328C25.792 24.8078 24.9887 26.5776 24.1793 28.3421C24.1726 28.3568 24.1611 28.3687 24.1468 28.376C24.1325 28.3832 24.1161 28.3854 24.1004 28.3822L12.9512 26.0543C12.9425 26.0525 12.9346 26.0482 12.9283 26.0419C12.922 26.0356 12.9177 26.0276 12.9158 26.0189L11.806 20.8469C11.8044 20.8396 11.8043 20.832 11.8056 20.8247C11.807 20.8173 11.8098 20.8103 11.8139 20.804C11.8179 20.7977 11.8232 20.7923 11.8294 20.7881C11.8356 20.7839 11.8425 20.7809 11.8498 20.7793L18.1573 19.4665ZM20.1345 21.5836C20.2731 20.7819 18.8943 20.4293 18.6973 21.2415C18.5446 21.8715 18.8817 22.2048 19.5079 22.1809C19.8457 22.1676 20.0805 21.8952 20.1345 21.5836ZM23.274 22.097C23.3328 21.9369 23.3257 21.76 23.2542 21.6052C23.1827 21.4504 23.0526 21.3304 22.8925 21.2715L22.7474 21.2181C22.5873 21.1592 22.4105 21.1663 22.2557 21.2378C22.1008 21.3094 21.9808 21.4395 21.9219 21.5995L21.8713 21.737C21.8125 21.897 21.8196 22.0739 21.8911 22.2287C21.9626 22.3835 22.0927 22.5035 22.2528 22.5624L22.3979 22.6158C22.558 22.6747 22.7348 22.6676 22.8896 22.5961C23.0444 22.5246 23.1645 22.3945 23.2234 22.2344L23.274 22.097Z" fill="white"/>
</g>
<defs>
<filter id="filter0_d_1221_4549" x="0.875" y="0.570312" width="38" height="38" filterUnits="userSpaceOnUse" color-interpolation-filters="sRGB">
<feFlood flood-opacity="0" result="BackgroundImageFix"/>
<feColorMatrix in="SourceAlpha" type="matrix" values="0 0 0 0 0 0 0 0 0 0 0 0 0 0 0 0 0 0 127 0" result="hardAlpha"/>
<feMorphology radius="4" operator="dilate" in="SourceAlpha" result="effect1_dropShadow_1221_4549"/>
<feOffset/>
<feComposite in2="hardAlpha" operator="out"/>
<feColorMatrix type="matrix" values="0 0 0 0 0 0 0 0 0 0 0 0 0 0 0 0 0 0 0.3 0"/>
<feBlend mode="normal" in2="BackgroundImageFix" result="effect1_dropShadow_1221_4549"/>
<feBlend mode="normal" in="SourceGraphic" in2="effect1_dropShadow_1221_4549" result="shape"/>
</filter>
</defs>
</svg>
