<svg width="39" height="39" viewBox="0 0 39 39" fill="none" xmlns="http://www.w3.org/2000/svg">
<g filter="url(#filter0_d_1221_4551)">
<rect x="4.625" y="4.57031" width="30" height="30" rx="6" fill="white"/>
<path d="M25.0195 15.6719C25.0048 15.766 24.988 15.8622 24.9691 15.961C24.3188 19.2998 22.094 20.4532 19.2525 20.4532H17.8058C17.4583 20.4532 17.1654 20.7055 17.1113 21.0483L16.3706 25.7461L16.1608 27.0777C16.1256 27.3027 16.2991 27.5056 16.5262 27.5056H19.0922C19.396 27.5056 19.6541 27.2848 19.702 26.9851L19.7272 26.8548L20.2103 23.7888L20.2414 23.6206C20.2887 23.3199 20.5473 23.0991 20.8512 23.0991H21.235C23.721 23.0991 25.6672 22.0897 26.236 19.1689C26.4737 17.9487 26.3506 16.9299 25.7219 16.2134C25.5316 15.9973 25.2955 15.818 25.0195 15.6719Z" fill="#179BD7"/>
<path d="M24.3374 15.3897C24.238 15.3608 24.1355 15.3345 24.0303 15.3108C23.9247 15.2877 23.8164 15.2672 23.7049 15.2493C23.3149 15.1862 22.8875 15.1562 22.4296 15.1562H18.5645C18.4694 15.1562 18.379 15.1778 18.298 15.2167C18.1198 15.3024 17.9873 15.4712 17.9552 15.6778L17.133 20.8854L17.1094 21.0374C17.1635 20.6946 17.4563 20.4423 17.8038 20.4423H19.2506C22.0921 20.4423 24.3169 19.2883 24.9672 15.9501C24.9866 15.8512 25.0029 15.755 25.0176 15.6609C24.8531 15.5737 24.6749 15.499 24.483 15.4354C24.4357 15.4196 24.3868 15.4044 24.3374 15.3897Z" fill="#222D65"/>
<path d="M17.9604 15.6803C17.9925 15.4736 18.125 15.3049 18.3032 15.2197C18.3847 15.1808 18.4746 15.1593 18.5697 15.1593H22.4347C22.8926 15.1593 23.32 15.1892 23.7101 15.2523C23.8216 15.2702 23.9299 15.2907 24.0355 15.3138C24.1407 15.3375 24.2432 15.3638 24.3425 15.3927C24.392 15.4074 24.4408 15.4227 24.4887 15.4379C24.6806 15.5015 24.8588 15.5767 25.0233 15.6634C25.2168 14.4296 25.0218 13.5895 24.3546 12.8288C23.6192 11.9913 22.2917 11.6328 20.5932 11.6328H15.662C15.315 11.6328 15.0191 11.8852 14.9654 12.2284L12.9115 25.2476C12.871 25.5052 13.0697 25.7376 13.3294 25.7376H16.3738L17.1382 20.8879L17.9604 15.6803Z" fill="#253B80"/>
</g>
<defs>
<filter id="filter0_d_1221_4551" x="0.625" y="0.570312" width="38" height="38" filterUnits="userSpaceOnUse" color-interpolation-filters="sRGB">
<feFlood flood-opacity="0" result="BackgroundImageFix"/>
<feColorMatrix in="SourceAlpha" type="matrix" values="0 0 0 0 0 0 0 0 0 0 0 0 0 0 0 0 0 0 127 0" result="hardAlpha"/>
<feMorphology radius="4" operator="dilate" in="SourceAlpha" result="effect1_dropShadow_1221_4551"/>
<feOffset/>
<feComposite in2="hardAlpha" operator="out"/>
<feColorMatrix type="matrix" values="0 0 0 0 0 0 0 0 0 0 0 0 0 0 0 0 0 0 0.3 0"/>
<feBlend mode="normal" in2="BackgroundImageFix" result="effect1_dropShadow_1221_4551"/>
<feBlend mode="normal" in="SourceGraphic" in2="effect1_dropShadow_1221_4551" result="shape"/>
</filter>
</defs>
</svg>
