<svg width="39" height="39" viewBox="0 0 39 39" fill="none" xmlns="http://www.w3.org/2000/svg">
<g filter="url(#filter0_d_1221_4556)">
<rect x="4.375" y="4.57031" width="30" height="30" rx="6" fill="#34E0A1"/>
<path d="M26.1303 17.4098L27.4499 15.9741H24.5236C23.0586 14.9734 21.2894 14.3906 19.376 14.3906C17.4651 14.3906 15.7008 14.9747 14.2383 15.9741H11.3047L12.6243 17.4098C11.8154 18.1477 11.3084 19.2107 11.3084 20.391C11.3084 22.6184 13.1142 24.4243 15.3416 24.4243C16.3997 24.4243 17.3637 24.0162 18.0834 23.349L19.3761 24.7566L20.6688 23.3503C21.3884 24.0174 22.3512 24.4243 23.4093 24.4243C25.6367 24.4243 27.445 22.6184 27.445 20.391C27.4462 19.2095 26.9392 18.1465 26.1303 17.4098ZM15.3428 23.1206C13.8351 23.1206 12.6133 21.8988 12.6133 20.391C12.6133 18.8833 13.8351 17.6615 15.3428 17.6615C16.8505 17.6615 18.0724 18.8833 18.0724 20.391C18.0724 21.8988 16.8505 23.1206 15.3428 23.1206ZM19.3773 20.3116C19.3773 18.5155 18.0712 16.9736 16.3472 16.315C17.2794 15.9252 18.3021 15.709 19.376 15.709C20.45 15.709 21.4739 15.9252 22.4062 16.315C20.6834 16.9748 19.3773 18.5155 19.3773 20.3116ZM23.4105 23.1206C21.9028 23.1206 20.681 21.8988 20.681 20.391C20.681 18.8833 21.9028 17.6615 23.4105 17.6615C24.9183 17.6615 26.1401 18.8833 26.1401 20.391C26.1401 21.8988 24.9183 23.1206 23.4105 23.1206ZM23.4105 18.959C22.62 18.959 21.9798 19.5993 21.9798 20.3898C21.9798 21.1803 22.62 21.8205 23.4105 21.8205C24.201 21.8205 24.8413 21.1803 24.8413 20.3898C24.8413 19.6005 24.201 18.959 23.4105 18.959ZM16.7736 20.391C16.7736 21.1815 16.1333 21.8218 15.3428 21.8218C14.5523 21.8218 13.9121 21.1815 13.9121 20.391C13.9121 19.6005 14.5523 18.9602 15.3428 18.9602C16.1333 18.959 16.7736 19.6005 16.7736 20.391Z" fill="black"/>
</g>
<defs>
<filter id="filter0_d_1221_4556" x="0.375" y="0.570312" width="38" height="38" filterUnits="userSpaceOnUse" color-interpolation-filters="sRGB">
<feFlood flood-opacity="0" result="BackgroundImageFix"/>
<feColorMatrix in="SourceAlpha" type="matrix" values="0 0 0 0 0 0 0 0 0 0 0 0 0 0 0 0 0 0 127 0" result="hardAlpha"/>
<feMorphology radius="4" operator="dilate" in="SourceAlpha" result="effect1_dropShadow_1221_4556"/>
<feOffset/>
<feComposite in2="hardAlpha" operator="out"/>
<feColorMatrix type="matrix" values="0 0 0 0 0 0 0 0 0 0 0 0 0 0 0 0 0 0 0.3 0"/>
<feBlend mode="normal" in2="BackgroundImageFix" result="effect1_dropShadow_1221_4556"/>
<feBlend mode="normal" in="SourceGraphic" in2="effect1_dropShadow_1221_4556" result="shape"/>
</filter>
</defs>
</svg>
